<svg xmlns="http://www.w3.org/2000/svg" width="600" height="400" viewBox="0 0 600 400">
  <!-- Background -->
  <rect width="600" height="400" fill="#90CAF9" />
  <path d="M0 300 Q150 250, 300 300 Q450 350, 600 300 L600 400 L0 400 Z" fill="#8BE36D" />
  
  <!-- Sun -->
  <circle cx="500" cy="80" r="50" fill="#FFD54F" />
  
  <!-- Buffopotamus -->
  <g transform="translate(200, 180)">
    <!-- Body -->
    <ellipse cx="100" cy="100" rx="80" ry="60" fill="#A98ACB" />
    
    <!-- Head -->
    <circle cx="160" cy="70" r="40" fill="#A98ACB" />
    
    <!-- Ears -->
    <ellipse cx="140" cy="40" rx="15" ry="20" fill="#8D6E63" />
    <ellipse cx="180" cy="40" rx="15" ry="20" fill="#8D6E63" />
    
    <!-- Horns -->
    <path d="M130 30 C120 10, 110 20, 100 5" stroke="#8D6E63" stroke-width="10" fill="none" />
    <path d="M190 30 C200 10, 210 20, 220 5" stroke="#8D6E63" stroke-width="10" fill="none" />
    
    <!-- Face -->
    <circle cx="150" cy="65" r="8" fill="white" />
    <circle cx="170" cy="65" r="8" fill="white" />
    <circle cx="150" cy="65" r="4" fill="#37474F" />
    <circle cx="170" cy="65" r="4" fill="#37474F" />
    
    <!-- Snout -->
    <ellipse cx="160" cy="85" rx="20" ry="15" fill="#8D6E63" />
    <circle cx="155" cy="85" r="3" fill="#37474F" />
    <circle cx="165" cy="85" r="3" fill="#37474F" />
    
    <!-- Smile -->
    <path d="M145 95 Q160 105, 175 95" stroke="#37474F" stroke-width="3" fill="none" />
    
    <!-- Legs -->
    <rect x="60" y="140" width="15" height="30" rx="5" fill="#8D6E63" />
    <rect x="125" y="140" width="15" height="30" rx="5" fill="#8D6E63" />
    <rect x="150" y="140" width="15" height="30" rx="5" fill="#8D6E63" />
    <rect x="215" y="140" width="15" height="30" rx="5" fill="#8D6E63" />
    
    <!-- Tail -->
    <path d="M40 100 C20 90, 10 110, 5 90" stroke="#A98ACB" stroke-width="10" fill="none" />
  </g>
  
  <!-- Water -->
  <path d="M0 350 Q100 330, 200 350 Q300 370, 400 350 Q500 330, 600 350 L600 400 L0 400 Z" fill="#4FACFE" opacity="0.7" />
</svg>
