<svg xmlns="http://www.w3.org/2000/svg" width="300" height="200" viewBox="0 0 300 200">
  <!-- Background -->
  <rect width="300" height="200" fill="#90CAF9" />
  
  <!-- Rain -->
  <g opacity="0.7">
    <line x1="30" y1="10" x2="20" y2="30" stroke="#FFFFFF" stroke-width="1" />
    <line x1="60" y1="5" x2="50" y2="25" stroke="#FFFFFF" stroke-width="1" />
    <line x1="90" y1="15" x2="80" y2="35" stroke="#FFFFFF" stroke-width="1" />
    <line x1="120" y1="8" x2="110" y2="28" stroke="#FFFFFF" stroke-width="1" />
    <line x1="150" y1="12" x2="140" y2="32" stroke="#FFFFFF" stroke-width="1" />
    <line x1="180" y1="7" x2="170" y2="27" stroke="#FFFFFF" stroke-width="1" />
    <line x1="210" y1="14" x2="200" y2="34" stroke="#FFFFFF" stroke-width="1" />
    <line x1="240" y1="9" x2="230" y2="29" stroke="#FFFFFF" stroke-width="1" />
    <line x1="270" y1="11" x2="260" y2="31" stroke="#FFFFFF" stroke-width="1" />
    
    <line x1="30" y1="40" x2="20" y2="60" stroke="#FFFFFF" stroke-width="1" />
    <line x1="60" y1="35" x2="50" y2="55" stroke="#FFFFFF" stroke-width="1" />
    <line x1="90" y1="45" x2="80" y2="65" stroke="#FFFFFF" stroke-width="1" />
    <line x1="120" y1="38" x2="110" y2="58" stroke="#FFFFFF" stroke-width="1" />
    <line x1="150" y1="42" x2="140" y2="62" stroke="#FFFFFF" stroke-width="1" />
    <line x1="180" y1="37" x2="170" y2="57" stroke="#FFFFFF" stroke-width="1" />
    <line x1="210" y1="44" x2="200" y2="64" stroke="#FFFFFF" stroke-width="1" />
    <line x1="240" y1="39" x2="230" y2="59" stroke="#FFFFFF" stroke-width="1" />
    <line x1="270" y1="41" x2="260" y2="61" stroke="#FFFFFF" stroke-width="1" />
  </g>
  
  <!-- Flooded Ground -->
  <path d="M0 150 Q75 140, 150 150 Q225 160, 300 150 L300 200 L0 200 Z" fill="#4FACFE" />
  
  <!-- Small Buffalo Calf -->
  <g transform="translate(80, 140) scale(0.25)">
    <ellipse cx="100" cy="100" rx="70" ry="40" fill="#8D6E63" />
    <circle cx="150" cy="80" r="25" fill="#8D6E63" />
    <path d="M130 60 C120 40, 110 50, 100 35" stroke="#8D6E63" stroke-width="8" fill="none" />
    <path d="M170 60 C180 40, 190 50, 200 35" stroke="#8D6E63" stroke-width="8" fill="none" />
    <circle cx="140" cy="75" r="5" fill="white" />
    <circle cx="160" cy="75" r="5" fill="white" />
    <circle cx="140" cy="75" r="2" fill="#37474F" />
    <circle cx="160" cy="75" r="2" fill="#37474F" />
  </g>
  
  <!-- Buffopotamus -->
  <g transform="translate(180, 130) scale(0.4)">
    <!-- Body -->
    <ellipse cx="100" cy="100" rx="80" ry="60" fill="#A98ACB" />
    
    <!-- Head -->
    <circle cx="160" cy="70" r="40" fill="#A98ACB" />
    
    <!-- Ears -->
    <ellipse cx="140" cy="40" rx="15" ry="20" fill="#8D6E63" />
    <ellipse cx="180" cy="40" rx="15" ry="20" fill="#8D6E63" />
    
    <!-- Horns -->
    <path d="M130 30 C120 10, 110 20, 100 5" stroke="#8D6E63" stroke-width="10" fill="none" />
    <path d="M190 30 C200 10, 210 20, 220 5" stroke="#8D6E63" stroke-width="10" fill="none" />
    
    <!-- Face -->
    <circle cx="150" cy="65" r="8" fill="white" />
    <circle cx="170" cy="65" r="8" fill="white" />
    <circle cx="150" cy="65" r="4" fill="#37474F" />
    <circle cx="170" cy="65" r="4" fill="#37474F" />
    
    <!-- Snout -->
    <ellipse cx="160" cy="85" rx="20" ry="15" fill="#8D6E63" />
    <circle cx="155" cy="85" r="3" fill="#37474F" />
    <circle cx="165" cy="85" r="3" fill="#37474F" />
    
    <!-- Concerned Expression -->
    <path d="M145 95 Q160 90, 175 95" stroke="#37474F" stroke-width="3" fill="none" />
  </g>
</svg>
